<svg xmlns="http://www.w3.org/2000/svg" viewBox="0 0 1714.6 215.75"><defs><style>.cls-1,.cls-2,.cls-5,.cls-6{fill:none;stroke-linejoin:round;}.cls-1,.cls-2,.cls-5{stroke:#000;}.cls-1,.cls-2,.cls-6{stroke-linecap:round;}.cls-1,.cls-5{stroke-width:2.25px;}.cls-2{stroke-width:2.26px;}.cls-3{fill:#a7a8aa;}.cls-4{fill:#fff;}.cls-5{stroke-linecap:square;}.cls-6{stroke:#fff;stroke-width:2px;}</style></defs><title>ill-B</title><g id="Layer_2" data-name="Layer 2"><g id="illo-B"><path class="cls-1" d="M1414.17,22.81l.54-4.66,5.13-4.65,4.47,5.22.13,8.07-21.41.28,5.26,4.36c6.83,0,19.29-.38,22.17-.38s5.94-3.43,5.94-4.73h-8.15s-3.27,12.5-6.76,12.5-6.66-4.08-6.66-4.08l1.23,5-7.12,1s3.45,10.22,5.75,11.87a45.61,45.61,0,0,1,5.82,0s4.58-11.2,6.28-12.9h4.72s-3.17,9.37-6.18,13.32c0,0,4.72,6.9,5.13,11.65L1409,64.39l3.84-7.84"/><path d="M1420.76,104.29l.61-37.42,9.54.31S1434,71,1434,72.51c0,2.47-3.23,4.7-5.25,5.47-1.48,3.66-5.77,26.31-5.77,26.31Z"/><path d="M1419.18,104.56l.63-37.9-10.28.3s-3.1,3.81-3.1,5.33c0,2.47,3.24,4.7,5.26,5.48,5,26.52,5,26.79,5,26.79Z"/><polygon points="1411.06 107.43 1419.18 107.43 1419.18 104.29 1416.7 104.56 1411.06 107.43"/><polygon points="1428.88 107.43 1420.76 107.43 1420.76 104.29 1423.12 103.28 1428.88 107.43"/><rect class="cls-2" x="1144.21" y="51.91" width="21.05" height="11.41"/><line class="cls-2" x1="1158.73" y1="51.91" x2="1158.73" y2="63.32"/><line class="cls-2" x1="1150.39" y1="51.91" x2="1150.39" y2="63.32"/><polygon class="cls-3" points="1159.3 78.18 1170.65 78.18 1172.72 137.56 1155.29 143.88 1159.3 78.18"/><polygon class="cls-4" points="1134.67 140.38 1139.24 78.73 1159.3 78.18 1155.29 143.88 1134.67 140.38"/><polygon class="cls-3" points="1160.03 91.11 1139 82.19 1139.24 78.73 1162.9 78.73 1160.03 91.11"/><path class="cls-4" d="M1131.45,78.18l-1.6-11.31a2.38,2.38,0,0,1,2.34-2.72c10.3-.08,46.43-.24,48.45,1.3,2.36,1.78-7.92,13.64-7.92,13.64S1133.58,79.37,1131.45,78.18Z"/><path d="M1147.31,90h0a1.31,1.31,0,0,1,1.31,1.31v5.56a0,0,0,0,1,0,0H1146a0,0,0,0,1,0,0V91.28A1.31,1.31,0,0,1,1147.31,90Z"/><path d="M1148.62,110.85h-2.75v-5.52a1.34,1.34,0,0,1,1.34-1.34h.07a1.34,1.34,0,0,1,1.34,1.34Z"/><path d="M1148.31,124.54l-2.74.33v-5.53a1.34,1.34,0,0,1,1.34-1.34h.07a1.34,1.34,0,0,1,1.33,1.34Z"/><polygon points="1160.03 45.78 1149.33 45.78 1146.95 52.16 1163.68 51.84 1160.03 45.78"/><path d="M1154.84,35.35h0a1.47,1.47,0,0,1,1.47,1.47v9.57a0,0,0,0,1,0,0h-2.94a0,0,0,0,1,0,0V36.82a1.47,1.47,0,0,1,1.47-1.47Z"/><polygon points="1165.26 58.57 1144.21 57.61 1144.21 63.32 1165.26 63.32 1165.26 58.57"/><path d="M1273.48,112.37c-2.69-.65-8.6.21-8.6.21s1.69,4.91,5.9,6.52c2.58,1,7.45-1.48,7.45-1.48S1277.49,113.34,1273.48,112.37Z"/><path d="M1282.45,114.6c1.51-1.31,6-1.71,6-1.71s-1.13,4.56-2.71,5.8-5.48.58-5.48.58A5.83,5.83,0,0,1,1282.45,114.6Z"/><path d="M1279.3,103.73a28.49,28.49,0,0,1,4.59-2.17s-1.18,4.29-2.44,5.58-4.12,1.08-4.12,1.08S1276.35,105.72,1279.3,103.73Z"/><path d="M1270.83,109.37c-1.62-.72-4.28-3.89-4.28-3.89s3.43-.73,5.1-.12a5.61,5.61,0,0,1,3.28,3.91S1272.45,110.1,1270.83,109.37Z"/><path d="M1271.37,102c-3.3-.13-3.8-2.61-3.8-2.61s3.26-.76,4.73-.31,2.87,2.67,2.87,2.67A27.33,27.33,0,0,1,1271.37,102Z"/><path d="M1271.76,96.55c-1.1-.34-2.74-2.29-2.74-2.29s2.57-1,3.67-.63,2,2.41,2,2.41A5.5,5.5,0,0,1,1271.76,96.55Z"/><path d="M1279.78,100.27a6.45,6.45,0,0,0,2.29-3.24s-3,0-4,.72-1.51,3.1-1.51,3.1S1278.77,101.09,1279.78,100.27Z"/><path d="M1278.16,95.24a7.55,7.55,0,0,0,1.58-2.22,7.1,7.1,0,0,0-2.79.49c-.74.51-1,2.13-1,2.13A4.38,4.38,0,0,0,1278.16,95.24Z"/><path d="M1271.43,91.05a9.15,9.15,0,0,1-2.23-2.39s2-.85,2.83-.46,1.68,2.48,1.68,2.48S1272.3,91.44,1271.43,91.05Z"/><path d="M1276.2,90.31a7.47,7.47,0,0,0,1-2.29,4.24,4.24,0,0,0-2.08.63,4.44,4.44,0,0,0-.55,2.16A2.69,2.69,0,0,0,1276.2,90.31Z"/><path d="M1274.3,83.64c0-1.83-2-2.92-2-2.92a6.32,6.32,0,0,0-.54,3.53c.19,1,1.9,1.8,1.9,1.8A6.44,6.44,0,0,0,1274.3,83.64Z"/><path d="M1318.47,110.56c1.88-2.16,7.21-5.06,7.21-5.06s1.23,5.09-1.39,9c-1.61,2.38-6.94,3.31-6.94,3.31A7.32,7.32,0,0,1,1318.47,110.56Z"/><path d="M1311,112.67c-1.85-1.41-7.08-1.51-7.08-1.51s1.66,5.26,3.57,6.59,6.37.22,6.37.22A6.86,6.86,0,0,0,1311,112.67Z"/><path d="M1310.65,102.89a33,33,0,0,0-5.44-2.23s1.63,5,3.17,6.39,4.82,1,4.82,1S1314.18,105,1310.65,102.89Z"/><path d="M1320.15,103.27c1.18-1.69,1.94-6.48,1.94-6.48s-3.85,1.28-5.14,2.89a6.62,6.62,0,0,0-.94,5.91S1319,105,1320.15,103.27Z"/><path d="M1318.13,95.34c3.17-2.13,2.15-4.93,2.15-4.93s-3.67,1.21-4.85,2.55-1.21,4.43-1.21,4.43A32,32,0,0,0,1318.13,95.34Z"/><path d="M1317.6,88.88c.77-1.09.88-4.08.88-4.08s-3,.92-3.82,2-.13,3.69-.13,3.69S1316.83,90,1317.6,88.88Z"/><path d="M1308.65,97a7.59,7.59,0,0,1-2.4-4s3.43.2,4.62,1.14,1.5,3.74,1.5,3.74S1309.76,98.05,1308.65,97Z"/><path d="M1308.65,90.14c-1.23-1-2.64-3.89-2.64-3.89s3.35.45,4.58,1.42,1.74,3.61,1.74,3.61A8.17,8.17,0,0,1,1308.65,90.14Z"/><path d="M1315.78,82.41c.83-1.21,1.32-4.61,1.32-4.61s-2.82.88-3.65,2.09-.6,4.2-.6,4.2A5.6,5.6,0,0,0,1315.78,82.41Z"/><path d="M1307.81,83.74a10.68,10.68,0,0,1-1.36-3.37s2.31,0,3,.8.77,3.22.77,3.22A3.67,3.67,0,0,1,1307.81,83.74Z"/><path d="M1310.47,74.48a5.94,5.94,0,0,0,1,4.7,9.75,9.75,0,0,0,2-4.41c.17-1.34-1.35-3.19-1.35-3.19A9.78,9.78,0,0,0,1310.47,74.48Z"/><path d="M125.74,111.47s-2.41,14.1-1.4,17.43a.72.72,0,0,0,.14.24c1.94,2.07,2.93,2.67,3.4,2.82a.55.55,0,0,1,.37.54v.58a.57.57,0,0,1-.57.58h-3a.56.56,0,0,1-.46-.23l-2.7-3.57a.54.54,0,0,1-.11-.26c-.22-1.44-2-13.32,0-14.88S125.74,111.47,125.74,111.47Z"/><path d="M165,101.24s-2.14,9-2.42,11.44c-.32,2.76-2.11,12.29-2.47,14.17a.58.58,0,0,0,.2.55l4.12,3.46a.57.57,0,0,1,.2.44v1a.57.57,0,0,1-.57.58h-3.14a.59.59,0,0,1-.49-.26l-3-4.6a.56.56,0,0,1-.09-.31V111.47S160.18,107.18,165,101.24Z"/><path d="M172.85,72.48c-5.33,0-7.57,7-10.28,7s-4.83-1.72-9.94-1S152,81,139.86,80.93,114.22,80.31,115,94.24c.54,6.64,1.92,10.7-3.84,17.56-1.27,3.49-.11,15.37,0,16.43a.26.26,0,0,0,0,.15l3.54,8.63a.58.58,0,0,0,.54.35h3.88a.56.56,0,0,0,.57-.57v-1.43a.57.57,0,0,0-.14-.38l-4.27-4.73a.57.57,0,0,1-.14-.28c-.2-1.19-1.31-8.66,1.91-12.65,3.51-4.34,9.27-8.3,11.26-8.3s20.73-1.72,20.73,1.74.08,16.33.08,17.54c0,1,2.27,5.85,2.89,7.15a.58.58,0,0,0,.52.32h4.16a.59.59,0,0,0,.58-.65l-.14-1.06a.65.65,0,0,0-.16-.32l-3.8-4a.59.59,0,0,1-.16-.49l2.39-15.57c0-7.19,16.83-19.33,16.83-24.19,4.44,2.55,7,.43,10.23.43s9.64,2.39,9.64-1.69S176.9,72.48,172.85,72.48Zm1.53,10.85a3,3,0,0,1-2.66-3.23.72.72,0,1,1,1.44,0c0,1,.56,1.77,1.22,1.77s1.22-.81,1.22-1.77a.73.73,0,1,1,1.45,0A3,3,0,0,1,174.38,83.33Z"/><path class="cls-5" d="M206.07,60.58c-33-54.91,33.9-32.51-5.6-.24-8.13,6.64-11.28-1.72-17.78-14.92-24.91-50.6,24.51-65.61,2,3.94-1.88,5.8-12.69,17.87-22.37.59-26.46-47.22,15.6-50.68.87,1.47-2.33,8.27-9.52,10.1-21.71-1.47-26.08-24.72,17.3-50.31,0,5.3-2.61,8.39-13.08,2.55-23.47-9.45-18.59-21.49,10.92-43.92,4.78,4.89C122.75,86,37.94,92.8,1.12,92.8"/><path class="cls-1" d="M492,117.3c-39.54,10.07-201.74,27.46-285.92-56.72"/><polygon class="cls-4" points="825.7 111.25 827.73 85.18 846.37 84.92 845.44 95.17 828.91 97.1 828.36 112.09 825.7 111.25"/><path class="cls-3" d="M792.44,142.92l20.67-33.16,36-.19,25.68,33.13Z"/><polygon class="cls-3" points="771.43 114.81 784.01 94.22 794.88 114.81 771.43 114.81"/><path class="cls-5" d="M771.43,163.33V114.81l14.88-24.34,14,24.34v75h-7.87V142.92l20.67-33.16h40.6l28.12,33.16V191c0,45.91-30.25,10.7,4.45,10.7,199,0,214.37-31.9,289.46-31.9,65.51,0,48.62-25.22,27.7-30.12,5.79,3.48,28.64,20.76-37.85,20.76s-71-27.37-52.22-27.37c-5.77,10.38,12.74,17.43,45,17.43,31.7,0,37.65-4.53,31.81-9.5-7.92-6.75-7.21-9.31,11.58-9.31h111.32c52.73,0,101.2-10,139.73-22.14,33.6-10.62,89-15.24,102.66-9.18,24.17,10.75-2.54,20.94,2.27,1.43,4.51-18.35,11.56-25.69,17-31.24,18.28-18.66,14.09,13.26,0,0-3.3-3.1-24.11-22.93-24.11-22.93L1565.88,50l-14.62-22.65,12.83,3.36-4.59-16.93,15.84,14.71,2.11-13.15,12.6,23.8,20-38,3.89,14.25,23.43-14.24-8.8,26.2,13.68,2-33.49,26.49,34.32,5.84-14.8,6.84,19.91,9.68-21.23.59,9.3,11.57-29.1-7.84,1.13,17s-7.63-5-21.86-19.58c0,0-15.88-.43-15.88,24.54,0,10.95,30.22,35.13,67.08,13.8,24.6-14.24,42.44-25.43,75.84-25.43"/><rect class="cls-4" x="782.47" y="134.89" width="2.44" height="7.81"/><rect class="cls-4" x="782.69" y="120.53" width="2.44" height="7.81"/><rect class="cls-4" x="782.47" y="152.81" width="2.44" height="7.81"/><rect class="cls-4" x="818.57" y="152.81" width="2.44" height="7.81"/><rect class="cls-4" x="833.92" y="152.81" width="2.44" height="7.81"/><rect class="cls-4" x="818.57" y="168.01" width="2.44" height="7.81"/><rect class="cls-4" x="835.25" y="168.01" width="2.44" height="7.81"/><rect class="cls-4" x="835.25" y="188.14" width="2.44" height="7.81"/><rect class="cls-4" x="853.82" y="152.81" width="2.44" height="7.81"/><path class="cls-4" d="M929.46,170.49a62.21,62.21,0,0,1,7.7-3.75,50.5,50.5,0,0,1,8.23-2.45c5.59-1.22,11.28-1.3,16.48-3s10.17-4.45,15.18-7,10.15-5.07,15.72-6.49a31.4,31.4,0,0,1,8.54-1.07,25,25,0,0,1,4.32.47c1.41.29,2.79.66,4.14,1.07a58.51,58.51,0,0,0,8.08,2,39.4,39.4,0,0,0,8.27.34c5.53-.35,11-1.68,16.58-2.6a62.8,62.8,0,0,1,16.94-.93.56.56,0,0,1,.5.61.57.57,0,0,1-.62.5,62.37,62.37,0,0,0-16.62,1c-5.51.95-11,2.32-16.7,2.73a41.46,41.46,0,0,1-8.55-.3,58.56,58.56,0,0,1-8.29-2c-1.34-.39-2.67-.73-4-1a23,23,0,0,0-4.06-.41,30.31,30.31,0,0,0-8.12,1.08c-5.34,1.4-10.36,3.91-15.34,6.46s-10,5.26-15.4,7.18a46.57,46.57,0,0,1-8.38,1.79c-2.8.4-5.56.76-8.26,1.35a49.34,49.34,0,0,0-7.9,2.41,59.33,59.33,0,0,0-7.41,3.67l0,0a1,1,0,0,1-1.36-.38,1,1,0,0,1,.37-1.36Z"/><path class="cls-6" d="M938.75,175.76c16.4-9.62,18.88-5.54,28.91-10.1,10.61-4.82,18.73-12.59,29.1-14.58,9.56-1.84,20.34,2.17,32.61,1.69"/><path class="cls-6" d="M946.69,178.62c16.4-9.62,18.89-5.55,28.91-10.11,10.61-4.82,18.73-12.58,29.11-14.58"/><path class="cls-3" d="M944.11,158.11c9.37-.18,80.37-3.18,97.52-12.28C1034.64,156.07,987.75,169.82,944.11,158.11Z"/><path class="cls-4" d="M944.11,158.11c29-15.55,60.09-25.65,97.52-12.28C1018.05,154.69,981.38,160.37,944.11,158.11Z"/><path class="cls-1" d="M978.11,129.14c2.58,1.7,4.41,3.23,7.62,5.79,9,7.22-9.42,11.18.25-.72,4.23-5.48,5.49-7.52,8.88-5.69,5,2.68,7.71,3.93,11.87,1.87,13.3-6.62-7-16.76-3.15.55.54,2.47,3.43,3,5.89,3.83,1.89.61,3.44,1.95,3.28,3.78-.25,3-3.16,10.6-5.48,13-6,6.15-6-9.38,2.75-1.2,3.46,3.24,16.29,12.72,20.09,15.09,7.72.66,17.16,4.75,21.19,7.34-4.19,6.65-7.88,8.5-7.88,8.5s-7.7-7.73-11.22-11.9"/><polygon points="665.93 93.77 661.9 82.22 655.1 83.57 655.03 92.81 665.93 93.77"/><polygon points="684.88 103.96 682.77 96.43 637.2 93.77 635.12 99.23 684.88 103.96"/><polygon points="671.61 106.91 671.52 105.09 648.8 101.99 647.01 107.97 671.61 106.91"/><polygon points="675.18 114.39 672.83 109.26 653.84 110.28 653.81 112.77 675.18 114.39"/><path d="M681.19,121.49l-1-5.66-34.9-1s-2.51,8.59-1.66,8.14S681.19,121.49,681.19,121.49Z"/><polygon points="675.91 122.97 666.75 123.51 667.5 148.31 681.19 151.31 675.91 122.97"/><polygon points="657.28 142.52 656.12 124.21 649.88 124.36 645.1 138.3 657.28 142.52"/><path d="M1507.2,153.78c-4.39-2.1-7.65-5.4-7.13-12,.17-4.33.66-5.25,2-5.9,1.21-2-2.11-2.52-6.52-2.61a32.08,32.08,0,0,0-7.14,1v1.95s3.37,2.23,3.82,3.62,2.09,9.2-5.59,13.08-10.38,6.63-10.38,15-.2,11.1,3.52,11.91,11.72,1.62,15.38,1,15.87-1.32,16-7.46S1511.6,155.88,1507.2,153.78Zm-3.75,11.81-5.94,2.32,2.86,1.84h-4.71v4.13h-1.78l.55-4.13h-4.55l2.86-1.84-5.87-1.64,2-.7-2.4-2h3.48l-1.26-2.06,4.17,1.75-.15-6.06,1.48,1.82,1.59-3.72.47,4.06,2.42-2.16-.83,5.6,3.72-1-1.11,1.46,3.29-.14-2.31,2.44Z"/><path d="M1492.34,131.83l-.72-6.15a9.17,9.17,0,0,1,7.54-.61c0,5.68-.51,7.09-.51,7.09A16.1,16.1,0,0,0,1492.34,131.83Z"/><path d="M1493.1,142.53c-.54-.2-1.23-.41-1.89-.58s-1.36-.31-2-.43A30.75,30.75,0,0,0,1485,141a16.63,16.63,0,0,0-4,.29,6,6,0,0,0-3,1.47,4,4,0,0,0-.92,2.92,12.56,12.56,0,0,0,.87,3.78c.25.64.55,1.28.84,1.91s.64,1.25,1,1.87.72,1.23,1.11,1.83l.6.9.29.45a.32.32,0,0,0,.28.14,1.66,1.66,0,0,0,.67-.14l-3.82,2.66a1.87,1.87,0,0,0,.37-.6.33.33,0,0,0,0-.33l-.32-.47-.63-.94c-.42-.63-.8-1.3-1.21-1.95s-.74-1.35-1.11-2-.67-1.41-1-2.14a15.33,15.33,0,0,1-1.21-4.79,7.64,7.64,0,0,1,0-1.35,6.26,6.26,0,0,1,.25-1.39,6.92,6.92,0,0,1,1.36-2.6,9.49,9.49,0,0,1,4.68-2.7,20.4,20.4,0,0,1,4.83-.66,35.09,35.09,0,0,1,4.71.16c.78.07,1.56.17,2.33.3a22.31,22.31,0,0,1,2.43.46Z"/><path class="cls-3" d="M500.43,133.44s7,44.78,0,51.8c10.89,8.19,31.51,14.89,32.34,14.89s8.63-42.86,8.63-42.86Z"/><path class="cls-4" d="M567.62,143.06c-3.37-6.37-13.16-8.52-21.54-11.65,1.18,1.2,2.33,2.43,3.4,3.74A46.64,46.64,0,0,1,560,161.68a64.72,64.72,0,0,1-.83,14.26,64.75,64.75,0,0,0,.08-14.19,45.06,45.06,0,0,0-11.44-25.14,56.82,56.82,0,0,0-8.49-7.53c-3.27-1-6.59-2-9.88-2.81,1,.89,2.05,1.8,3,2.74a64,64,0,0,1,10.1,12,43.39,43.39,0,0,1,6,14.41,41.14,41.14,0,0,1,.21,15.48,40.78,40.78,0,0,0-.94-15.3,42.32,42.32,0,0,0-6.51-13.75,61.92,61.92,0,0,0-10.36-11.16c-2.42-2.08-5-4-7.57-5.84-4.94-1.1-9.69-2-14-2.63,2.31,1.91,4.57,3.87,6.76,5.92a112.22,112.22,0,0,1,10.47,11.11A64.69,64.69,0,0,1,535,152a30,30,0,0,1,3.27,14.72,29.51,29.51,0,0,0-3.94-14.38,63.13,63.13,0,0,0-8.79-12.14,110.7,110.7,0,0,0-10.82-10.4c-3.53-3-7.21-5.78-11-8.4-6.58-.8-11.31-1-12.69-.61.89,5.2,18.66,20.91,25.08,25.1s19.05,17.19,16.22,39.07c-2.1,16.18-10.22,9.26-12.21,6.44-18.34-25.93-47.49,24.08-4.47,24.09,15.06,0,43.48-6.68,50.79-10.73C580.59,194.07,573,153.22,567.62,143.06Z"/><path class="cls-1" d="M492,117.3c16-4-4.89-18.28-1.57,1.36,1.12,6.63,7.74,12.45,22.34,24.47s19.84,18.55,19.84,38.38c0,12.39-8.34,25.7-21.09,25.7-7.63,0-10.81-5.47-10.81-9.39s2.37-7.1,5.87-7.1,6,4.63,2.31,8.31c4.31,0,7.85-2.81,7.85-6.89,0-5.83-5-8.21-9.49-8.21s-13.93,4.76-13.93,15.91c0,9.59,8.73,14.58,19.45,14.58,8.79,0,21.5-5.78,24.08-10.39,9.64-17.27-4.61-14-2.19,2.47.51,3.51,7.2,3.16,13.6-5.35,10.14-13.49-4.87-18.84-.3,2.09.79,3.62,8.92,4.71,13.14-3.39,10.31-19.81-5.66-17.57-.79,1.3,1.07,4.17,8.74,3,11.72-5.34,5-13.92,5.47-33.16-7.17-57.45-8-15.44-23.66-5.52,1,1.72"/><path class="cls-1" d="M562.42,139c10,2.6,158.07,49.54,209,24.36"/><path d="M285.94,61.74s-5.26,9.2-4.94,9.1,4,.18,4,.18l-3.27,5.45h3.38l.07,6.42,3.09.33-.6-7.26h4l-4.32-5.36,4.32-.49Z"/><path d="M378.11,112.28c-.16-1.4-.89-25.08-.89-25.08h-7.79l9.13-10.36-6.74.94,8.32-12.88-4.49-.83,6.69-7.32L387,64.9h-3.5L390,77.62l-7.85-.28L392.34,87h-10l2.39,25.85Z"/><polygon points="324.87 58.76 322.01 65.97 324.16 65.97 319.14 75.66 325.09 75.43 317.05 83.23 325.17 83.05 316.12 90.75 324.93 90.75 325.09 105.68 329.41 104.8 329.78 91.7 336.93 91.74 329.17 82.53 334.43 81.8 327.73 75.43 332.39 74.99 326.32 65.94 329.49 65.81 324.87 58.76"/></g></g></svg>