<svg xmlns="http://www.w3.org/2000/svg" viewBox="0 0 1713.39 271.48"><defs><style>.cls-1,.cls-2,.cls-3,.cls-4,.cls-5{fill:none;}.cls-2,.cls-3,.cls-4{stroke:#fff;}.cls-2,.cls-3,.cls-4,.cls-5{stroke-linecap:round;stroke-linejoin:round;}.cls-2{stroke-width:2.5px;}.cls-3{stroke-width:2.04px;}.cls-4,.cls-5{stroke-width:2.25px;}.cls-5{stroke:#a7a8aa;}</style></defs><title>clouds-2</title><g id="Layer_2" data-name="Layer 2"><g id="clouds-A"><polygon class="cls-1" points="1.04 1.13 1713.39 1.13 1712.35 271.48 0 271.48 1.04 1.13"/><path class="cls-2" d="M798.48,194.93c-4.36-15.68,17.77-16.74,19.76-4.57,9.77-10.38,23.35,2,14.42,9,16.56,4.29-3.26,33-21.91,9.35-12.93-11.23,15.61-12.8-1.37.92C791.58,224,764.31,192.71,798.48,194.93Z"/><path class="cls-3" d="M369.63,20.56c-13.14-16.25,19.23-27.23,18.05-1.77,11.6-20,38.81-.68,20.36,8.21,13.19,18.5-19.2,37.52-30.77,14.65-12.42-19.43,25.22-13.34-2.24.25C355.42,51.61,336,15.74,369.63,20.56Z"/><path class="cls-4" d="M1315.26,22.92c-7.46-17.75,23.65-29.73,20.53-13.71,9.3-13.1,30.7-8.48,16.1,1.11,18.35-1.49,25.18,36.37-15.88,24.76-16.66-5.24,14.3-20.41,2.9,1.28-13.16,25.06-43.06,11.81-43-3.41C1296,21.73,1305.7,14.63,1315.26,22.92Z"/><path class="cls-5" d="M41.58,90.81C59.89,90.81,59.63,108,55.39,108c-4.92,0,3.14-17.16,22.82-17.16"/><path class="cls-5" d="M637.61,72.13c-18.31,0-18.05,17.15-13.81,17.15,4.92,0-3.14-17.15-22.82-17.15"/><path class="cls-5" d="M1085.31,87.33c-14.9,0-18.9,16.19-13.18,16.19,4,0-1.72-16.19-16.61-16.19"/></g></g></svg>